<?xml version="1.0" encoding="UTF-8" standalone="no" ?>
<!DOCTYPE svg PUBLIC "-//W3C//DTD SVG 1.1//EN" "http://www.w3.org/Graphics/SVG/1.1/DTD/svg11.dtd">
<svg xmlns="http://www.w3.org/2000/svg" xmlns:xlink="http://www.w3.org/1999/xlink" version="1.1" width="500" height="1000" viewBox="0 0 500 1000" xml:space="preserve">
<desc>Created with Fabric.js 5.3.0</desc>
<defs>
</defs>
<g transform="matrix(1 0 0 1 250 500)" id="IGCK_LHRy2-7WLbSAH9dZ"  >
<g style=""   >
		<g transform="matrix(0.2214263846 0 0 1.8204900295 -94.1854306446 0)" id="gNlez8wT44VG7c5Seqlhy"  >
<path style="stroke: rgb(0,0,0); stroke-width: 0; stroke-dasharray: none; stroke-linecap: butt; stroke-dashoffset: 0; stroke-linejoin: miter; stroke-miterlimit: 4; fill: rgb(0,0,0); fill-rule: nonzero; opacity: 1;"  transform=" translate(-0.000005, -0.000005)" d="M -264.88095 -264.88095 L 264.88095999999996 -264.88095 L 264.88095999999996 264.88095999999996 L -264.88095 264.88095999999996 z" stroke-linecap="round" />
</g>
		<g transform="matrix(0.1367725424 0 0 1.2427397213 11.6638525397 -9.7755217285)" id="UHF4WUiawgOYMk4TuptaU"  >
<path style="stroke: rgb(193,146,207); stroke-width: 0; stroke-dasharray: none; stroke-linecap: butt; stroke-dashoffset: 0; stroke-linejoin: miter; stroke-miterlimit: 4; fill: rgb(255,255,255); fill-rule: nonzero; opacity: 1;"  transform=" translate(0, 0)" d="M -345.08133 -345.08133 L 345.08133 -345.08133 L 345.08133 345.08133 L -345.08133 345.08133 z" stroke-linecap="round" />
</g>
		<g transform="matrix(0.0247191025 0 0 1.8148057631 -18.8732032527 1.5056534134)" id="2pnXEWbnBKr1h_6Z-YnVu"  >
<path style="stroke: rgb(0,0,0); stroke-width: 0; stroke-dasharray: none; stroke-linecap: butt; stroke-dashoffset: 0; stroke-linejoin: miter; stroke-miterlimit: 4; fill: rgb(0,0,0); fill-rule: nonzero; opacity: 1;"  transform=" translate(-0.000005, -0.000005)" d="M -264.88095 -264.88095 L 264.88095999999996 -264.88095 L 264.88095999999996 264.88095999999996 L -264.88095 264.88095999999996 z" stroke-linecap="round" />
</g>
		<g transform="matrix(0.0247191025 0 0 1.7937275188 4.1162330627 0.4679929251)" id="wtI16Eo8Qypb3zr9LP7zH"  >
<path style="stroke: rgb(0,0,0); stroke-width: 0; stroke-dasharray: none; stroke-linecap: butt; stroke-dashoffset: 0; stroke-linejoin: miter; stroke-miterlimit: 4; fill: rgb(0,0,0); fill-rule: nonzero; opacity: 1;"  transform=" translate(-0.000005, -0.000005)" d="M -264.88095 -264.88095 L 264.88095999999996 -264.88095 L 264.88095999999996 264.88095999999996 L -264.88095 264.88095999999996 z" stroke-linecap="round" />
</g>
		<g transform="matrix(0.0247191025 0 0 1.7819673401 28.9206688751 3.5830397841)" id="xgqWyv6mpFMnRBrKa3d_B"  >
<path style="stroke: rgb(0,0,0); stroke-width: 0; stroke-dasharray: none; stroke-linecap: butt; stroke-dashoffset: 0; stroke-linejoin: miter; stroke-miterlimit: 4; fill: rgb(0,0,0); fill-rule: nonzero; opacity: 1;"  transform=" translate(-0.000005, -0.000005)" d="M -264.88095 -264.88095 L 264.88095999999996 -264.88095 L 264.88095999999996 264.88095999999996 L -264.88095 264.88095999999996 z" stroke-linecap="round" />
</g>
		<g transform="matrix(0.0247191025 0 0 1.7433534821 52.3138840936 7.4832691328)" id="OYc1JMSGTK5ViVxON6JNW"  >
<path style="stroke: rgb(0,0,0); stroke-width: 0; stroke-dasharray: none; stroke-linecap: butt; stroke-dashoffset: 0; stroke-linejoin: miter; stroke-miterlimit: 4; fill: rgb(0,0,0); fill-rule: nonzero; opacity: 1;"  transform=" translate(-0.000005, -0.000005)" d="M -264.88095 -264.88095 L 264.88095999999996 -264.88095 L 264.88095999999996 264.88095999999996 L -264.88095 264.88095999999996 z" stroke-linecap="round" />
</g>
		<g transform="matrix(0.0247191025 0 0 1.6803932907 76.0868498622 9.9386910535)" id="PcwXrPqFlCVYgKr14OXU3"  >
<path style="stroke: rgb(0,0,0); stroke-width: 0; stroke-dasharray: none; stroke-linecap: butt; stroke-dashoffset: 0; stroke-linejoin: miter; stroke-miterlimit: 4; fill: rgb(0,0,0); fill-rule: nonzero; opacity: 1;"  transform=" translate(-0.000005, -0.000005)" d="M -264.88095 -264.88095 L 264.88095999999996 -264.88095 L 264.88095999999996 264.88095999999996 L -264.88095 264.88095999999996 z" stroke-linecap="round" />
</g>
		<g transform="matrix(0.0247191025 0 0 1.623236693 102.5283311798 7.5212789751)" id="ISPxH73Z128oUl2XWVBMJ"  >
<path style="stroke: rgb(0,0,0); stroke-width: 0; stroke-dasharray: none; stroke-linecap: butt; stroke-dashoffset: 0; stroke-linejoin: miter; stroke-miterlimit: 4; fill: rgb(0,0,0); fill-rule: nonzero; opacity: 1;"  transform=" translate(-0.000005, -0.000005)" d="M -264.88095 -264.88095 L 264.88095999999996 -264.88095 L 264.88095999999996 264.88095999999996 L -264.88095 264.88095999999996 z" stroke-linecap="round" />
</g>
		<g transform="matrix(0.0247191025 0 0 1.5409547703 124.6582784336 10.9011848806)" id="P5Phs_ySmhkBCF35L6myV"  >
<path style="stroke: rgb(0,0,0); stroke-width: 0; stroke-dasharray: none; stroke-linecap: butt; stroke-dashoffset: 0; stroke-linejoin: miter; stroke-miterlimit: 4; fill: rgb(0,0,0); fill-rule: nonzero; opacity: 1;"  transform=" translate(-0.000005, -0.000005)" d="M -264.88095 -264.88095 L 264.88095999999996 -264.88095 L 264.88095999999996 264.88095999999996 L -264.88095 264.88095999999996 z" stroke-linecap="round" />
</g>
		<g transform="matrix(0.0247191025 0 0 1.4220888882 146.2894433281 16.9581476573)" id="lsp4WEza2XtnskNHVBHZg"  >
<path style="stroke: rgb(0,0,0); stroke-width: 0; stroke-dasharray: none; stroke-linecap: butt; stroke-dashoffset: 0; stroke-linejoin: miter; stroke-miterlimit: 4; fill: rgb(0,0,0); fill-rule: nonzero; opacity: 1;"  transform=" translate(-0.000005, -0.000005)" d="M -264.88095 -264.88095 L 264.88095999999996 -264.88095 L 264.88095999999996 264.88095999999996 L -264.88095 264.88095999999996 z" stroke-linecap="round" />
</g>
</g>
</g>
</svg>