<?xml version="1.0" encoding="UTF-8" standalone="no" ?>
<!DOCTYPE svg PUBLIC "-//W3C//DTD SVG 1.1//EN" "http://www.w3.org/Graphics/SVG/1.1/DTD/svg11.dtd">
<svg xmlns="http://www.w3.org/2000/svg" xmlns:xlink="http://www.w3.org/1999/xlink" version="1.1" width="1700" height="956.25" viewBox="0 0 1700 956.25" xml:space="preserve">
<desc>Created with Fabric.js 5.3.0</desc>
<defs>
</defs>
<g transform="matrix(1 0 0 1 850 478.125)" id="SgT7vcoMt9Pmyd6ZgjvHT"  >
<g style=""   >
		<g transform="matrix(1.0411872239 0 0 0.9618371043 0 0)" id="Dj7WCZKbVLY6eq8YxzVNV"  >
<path style="stroke: rgb(102,237,145); stroke-width: 0; stroke-dasharray: none; stroke-linecap: butt; stroke-dashoffset: 0; stroke-linejoin: miter; stroke-miterlimit: 4; fill: rgb(49,168,247); fill-rule: nonzero; opacity: 0.2;"  transform=" translate(0, 0)" d="M -476.83966 -266.50681 C -476.83966 -382.67042999999995 -389.84718999999996 -476.83965 -282.53652999999997 -476.83965 L 282.5365300000001 -476.83965 L 282.5365300000001 -476.83965 C 389.8471800000001 -476.83965 476.8396600000001 -382.67043 476.8396600000001 -266.50681 L 476.8396600000001 266.50681 L 476.8396600000001 266.50681 C 476.8396600000001 382.67042999999995 389.84719000000007 476.83965 282.5365300000001 476.83965 L -282.53652999999997 476.83965 L -282.53652999999997 476.83965 C -389.84718 476.83965 -476.83966 382.67043 -476.83966 266.50681 z" stroke-linecap="round" />
</g>
		<g transform="matrix(0.1138316473 0.1566758213 -1.7898991006 1.3004378174 -207.1721772934 -202.1164258312)" id="Yl1yCLlNX1D0zlUphozLY"  >
<path style="stroke: rgb(0,0,0); stroke-width: 0; stroke-dasharray: none; stroke-linecap: butt; stroke-dashoffset: 0; stroke-linejoin: miter; stroke-miterlimit: 4; fill: rgb(255,255,255); fill-rule: nonzero; opacity: 0.4;"  transform=" translate(0, 0.000005)" d="M -137.86408 -113.72868 C -137.86408 -127.05829 -14.416380000000004 -137.86408 137.86408 -137.86408 L 137.86408 -137.86408 L 137.86408 113.72867 L 137.86408 113.72867 C 137.86408 127.05828 14.416380000000004 137.86407 -137.86408 137.86407 L -137.86408 137.86407 z" stroke-linecap="round" />
</g>
		<g transform="matrix(0.1138316473 0.1566758213 -1.7898991006 1.3004378174 -88.0279928348 -48.1798742202)" id="GnXjy9sjMestLFprP5lOu"  >
<path style="stroke: rgb(0,0,0); stroke-width: 0; stroke-dasharray: none; stroke-linecap: butt; stroke-dashoffset: 0; stroke-linejoin: miter; stroke-miterlimit: 4; fill: rgb(255,255,255); fill-rule: nonzero; opacity: 0.4;"  transform=" translate(0, 0.000005)" d="M -137.86408 -113.72868 C -137.86408 -127.05829 -14.416380000000004 -137.86408 137.86408 -137.86408 L 137.86408 -137.86408 L 137.86408 113.72867 L 137.86408 113.72867 C 137.86408 127.05828 14.416380000000004 137.86407 -137.86408 137.86407 L -137.86408 137.86407 z" stroke-linecap="round" />
</g>
		<g transform="matrix(0.1138316473 0.1566758213 -1.7898991006 1.3004378174 17.4756912251 93.5775551043)" id="1BX9tZfYsTnmnci5wt3UY"  >
<path style="stroke: rgb(0,0,0); stroke-width: 0; stroke-dasharray: none; stroke-linecap: butt; stroke-dashoffset: 0; stroke-linejoin: miter; stroke-miterlimit: 4; fill: rgb(255,255,255); fill-rule: nonzero; opacity: 0.4;"  transform=" translate(0, 0.000005)" d="M -137.86408 -113.72868 C -137.86408 -127.05829 -14.416380000000004 -137.86408 137.86408 -137.86408 L 137.86408 -137.86408 L 137.86408 113.72867 L 137.86408 113.72867 C 137.86408 127.05828 14.416380000000004 137.86407 -137.86408 137.86407 L -137.86408 137.86407 z" stroke-linecap="round" />
</g>
</g>
</g>
</svg>