<?xml version="1.0" encoding="UTF-8" standalone="no" ?>
<!DOCTYPE svg PUBLIC "-//W3C//DTD SVG 1.1//EN" "http://www.w3.org/Graphics/SVG/1.1/DTD/svg11.dtd">
<svg xmlns="http://www.w3.org/2000/svg" xmlns:xlink="http://www.w3.org/1999/xlink" version="1.1" width="800" height="418" viewBox="0 0 800 418" xml:space="preserve">
<desc>Created with Fabric.js 5.3.0</desc>
<defs>
</defs>
<g transform="matrix(1 0 0 1 400 209)" id="I1q66FCBupO0V5UnLkMgw"  >
<g style=""   >
		<g transform="matrix(0.949030085 0 0 0.949030085 0 0)" id="gyBCsxrOzQ9MDlEYMYGVq"  >
<path style="stroke: rgb(0,0,0); stroke-width: 7; stroke-dasharray: none; stroke-linecap: butt; stroke-dashoffset: 0; stroke-linejoin: miter; stroke-miterlimit: 4; fill: rgb(255,255,255); fill-opacity: 0; fill-rule: nonzero; opacity: 1;"  transform=" translate(0.000005, -0.000005)" d="M -97.56803 -124.54175 L 96.08266 -124.54175 L 131.89979 -91.89388 L 131.89979 92.21911 L 96.08266 124.54176000000001 L -97.56803 124.54176000000001 L -131.8998 92.21911 L -131.8998 -93.88111 z" stroke-linecap="round" />
</g>
		<g transform="matrix(2.1363670832 0 0 2.1363670832 0 -7.9852597977)" id="LmCThwxq8I1yVdv-fRhM5"  >
<path style="stroke: rgb(0,0,0); stroke-width: 2; stroke-dasharray: none; stroke-linecap: butt; stroke-dashoffset: 0; stroke-linejoin: miter; stroke-miterlimit: 4; fill: rgb(255,255,255); fill-rule: nonzero; opacity: 1;"  transform=" translate(0, 0)" d="M -38.46154 -38.46154 L 38.46154 -38.46154 L 38.46154 38.46154 L -38.46154 38.46154 z" stroke-linecap="round" />
</g>
		<g transform="matrix(0.9992840227 0 0 0.9992840227 0 -11.9942009302)" id="viRLCzVh4yw6fgvLaaPAy"  >
<path style="stroke: rgb(0,0,0); stroke-width: 2; stroke-dasharray: none; stroke-linecap: butt; stroke-dashoffset: 0; stroke-linejoin: miter; stroke-miterlimit: 4; fill: rgb(255,255,255); fill-rule: nonzero; opacity: 1;"  transform=" translate(0, 0)" d="M -38.46154 -38.46154 L 38.46154 -38.46154 L 38.46154 38.46154 L -38.46154 38.46154 z" stroke-linecap="round" />
</g>
</g>
</g>
</svg>