<?xml version="1.0" encoding="UTF-8" standalone="no" ?>
<!DOCTYPE svg PUBLIC "-//W3C//DTD SVG 1.1//EN" "http://www.w3.org/Graphics/SVG/1.1/DTD/svg11.dtd">
<svg xmlns="http://www.w3.org/2000/svg" xmlns:xlink="http://www.w3.org/1999/xlink" version="1.1" width="800" height="418" viewBox="0 0 800 418" xml:space="preserve">
<desc>Created with Fabric.js 5.3.0</desc>
<defs>
</defs>
<g transform="matrix(1 0 0 1 400 209)" id="jYEV4Xv95L1u-y20YQsrR"  >
<g style=""   >
		<g transform="matrix(1.0645682782 0 0 1.0645682782 0 0)" id="ArmNLGEzQphbXvA7OGVX4"  >
<g style=""   >
		<g transform="matrix(1 0 0 0.1876838465 -66.1538822545 46.3144859718)" id="QqyQxw-cSkpMw930zQiR6"  >
<path style="stroke:white;stroke-width: 0; stroke-dasharray: none; stroke-linecap: butt; stroke-dashoffset: 0; stroke-linejoin: miter; stroke-miterlimit: 4; stroke: white;fill-rule: nonzero; opacity: 1;filter: url(#SVGID_0);"  transform=" translate(0, 0)" d="M 0 -107.7381 C 59.47143 -107.7381 107.7381 -59.471430000000005 107.7381 0 C 107.7381 59.47143 59.471430000000005 107.7381 0 107.7381 C -59.47143 107.7381 -107.7381 59.471430000000005 -107.7381 0 C -107.7381 -59.47143 -59.471430000000005 -107.7381 0 -107.7381 z" stroke-linecap="round" />
<filter id="SVGID_0" y="-24.1767954%" height="148.3535908%" x="-24.1767954%" width="148.3535908%" >
	<feGaussianBlur in="SourceAlpha" stdDeviation="2.5"></feGaussianBlur>
	<feOffset dx="4" dy="4" result="oBlur" ></feOffset>
	<feFlood flood-color="rgb(0,0,0)" flood-opacity="1"/>
	<feComposite in2="oBlur" operator="in" />
	<feMerge>
		<feMergeNode></feMergeNode>
		<feMergeNode in="SourceGraphic"></feMergeNode>
	</feMerge>
</filter>
<path style="stroke: rgb(0,0,0); stroke-width: 0; stroke-dasharray: none; stroke-linecap: butt; stroke-dashoffset: 0; stroke-linejoin: miter; stroke-miterlimit: 4; fill: rgb(0,0,0); fill-rule: nonzero; opacity: 1;"  transform=" translate(0, 0)" d="M 0 -107.7381 C 59.47143 -107.7381 107.7381 -59.471430000000005 107.7381 0 C 107.7381 59.47143 59.471430000000005 107.7381 0 107.7381 C -59.47143 107.7381 -107.7381 59.471430000000005 -107.7381 0 C -107.7381 -59.47143 -59.471430000000005 -107.7381 0 -107.7381 z" stroke-linecap="round" />
</g>
		<g transform="matrix(1 0 0 0.2198975316 161.8285781198 42.8438448691)" id="zjWE8122dtN8ni-t8TmJS"  >
<path style="stroke:white;stroke-width: 0; stroke-dasharray: none; stroke-linecap: butt; stroke-dashoffset: 0; stroke-linejoin: miter; stroke-miterlimit: 4; stroke: white;fill-rule: nonzero; opacity: 1;filter: url(#SVGID_1);"  transform=" translate(0, 0)" d="M 0 -107.7381 C 59.47143 -107.7381 107.7381 -59.471430000000005 107.7381 0 C 107.7381 59.47143 59.471430000000005 107.7381 0 107.7381 C -59.47143 107.7381 -107.7381 59.471430000000005 -107.7381 0 C -107.7381 -59.47143 -59.471430000000005 -107.7381 0 -107.7381 z" stroke-linecap="round" />
<filter id="SVGID_1" y="-24.1767954%" height="148.3535908%" x="-24.1767954%" width="148.3535908%" >
	<feGaussianBlur in="SourceAlpha" stdDeviation="2.5"></feGaussianBlur>
	<feOffset dx="4" dy="4" result="oBlur" ></feOffset>
	<feFlood flood-color="rgb(0,0,0)" flood-opacity="1"/>
	<feComposite in2="oBlur" operator="in" />
	<feMerge>
		<feMergeNode></feMergeNode>
		<feMergeNode in="SourceGraphic"></feMergeNode>
	</feMerge>
</filter>
<path style="stroke: rgb(0,0,0); stroke-width: 0; stroke-dasharray: none; stroke-linecap: butt; stroke-dashoffset: 0; stroke-linejoin: miter; stroke-miterlimit: 4; fill: rgb(0,0,0); fill-rule: nonzero; opacity: 1;"  transform=" translate(0, 0)" d="M 0 -107.7381 C 59.47143 -107.7381 107.7381 -59.471430000000005 107.7381 0 C 107.7381 59.47143 59.471430000000005 107.7381 0 107.7381 C -59.47143 107.7381 -107.7381 59.471430000000005 -107.7381 0 C -107.7381 -59.47143 -59.471430000000005 -107.7381 0 -107.7381 z" stroke-linecap="round" />
</g>
		<g transform="matrix(2.0397326954 0 0 0.3984388544 0 -10.9909113477)" id="CiiKzz8YRUG50XWmfjbym"  >
<path style="stroke:white;stroke-width: 5; stroke-dasharray: none; stroke-linecap: butt; stroke-dashoffset: 0; stroke-linejoin: miter; stroke-miterlimit: 4; stroke: white;fill-rule: nonzero; opacity: 1;filter: url(#SVGID_2);"  transform=" translate(-0.000005, -0.000005)" d="M -136.90476 -136.90476 L 136.90476999999998 -136.90476 L 136.90476999999998 136.90476999999998 L -136.90476 136.90476999999998 z" stroke-linecap="round" />
<filter id="SVGID_2" y="-26.20869551%" height="152.41739102%" x="-26.20869551%" width="152.41739102%" >
	<feGaussianBlur in="SourceAlpha" stdDeviation="6.5"></feGaussianBlur>
	<feOffset dx="4" dy="4" result="oBlur" ></feOffset>
	<feFlood flood-color="rgb(0,0,0)" flood-opacity="1"/>
	<feComposite in2="oBlur" operator="in" />
	<feMerge>
		<feMergeNode></feMergeNode>
		<feMergeNode in="SourceGraphic"></feMergeNode>
	</feMerge>
</filter>
<path style="stroke: rgb(0,0,0); stroke-width: 5; stroke-dasharray: none; stroke-linecap: butt; stroke-dashoffset: 0; stroke-linejoin: miter; stroke-miterlimit: 4; fill: rgb(119,117,117); fill-rule: nonzero; opacity: 1;"  transform=" translate(-0.000005, -0.000005)" d="M -136.90476 -136.90476 L 136.90476999999998 -136.90476 L 136.90476999999998 136.90476999999998 L -136.90476 136.90476999999998 z" stroke-linecap="round" />
</g>
		<g transform="matrix(1 0 0 1 -246.0110108958 -45.5828830057)" id="72v7v3JYJMlT41lAU6qZn"  >
<path style="stroke: rgb(0,0,0); stroke-width: 0; stroke-dasharray: none; stroke-linecap: butt; stroke-dashoffset: 0; stroke-linejoin: miter; stroke-miterlimit: 4; fill: rgb(0,0,0); fill-rule: nonzero; opacity: 1;"  transform=" translate(-13.09524, -13.09524)" d="M 13.09524 0 C 20.32381 0 26.19048 5.86667 26.19048 13.09524 C 26.19048 20.32381 20.32381 26.19048 13.09524 26.19048 C 5.86667 26.19048 0 20.32381 0 13.09524 C 0 5.86667 5.86667 0 13.09524 0 z" stroke-linecap="round" />
</g>
		<g transform="matrix(1 0 0 1 -246.0110180037 19.1525035259)" id="B_hu8NjjF5rzVoNcFAalt"  >
<path style="stroke: rgb(0,0,0); stroke-width: 0; stroke-dasharray: none; stroke-linecap: butt; stroke-dashoffset: 0; stroke-linejoin: miter; stroke-miterlimit: 4; fill: rgb(0,0,0); fill-rule: nonzero; opacity: 1;"  transform=" translate(-13.09524, -13.09524)" d="M 13.09524 0 C 20.32381 0 26.19048 5.86667 26.19048 13.09524 C 26.19048 20.32381 20.32381 26.19048 13.09524 26.19048 C 5.86667 26.19048 0 20.32381 0 13.09524 C 0 5.86667 5.86667 0 13.09524 0 z" stroke-linecap="round" />
</g>
</g>
</g>
		<g transform="matrix(8.01 0 0 0.6819920014 24.4716869243 -18.2720375375)" id="A09rp3mJ5y8cZ5d16bLKB"  >
<path style="stroke: rgb(0,0,0); stroke-width: 0; stroke-dasharray: none; stroke-linecap: butt; stroke-dashoffset: 0; stroke-linejoin: miter; stroke-miterlimit: 4; fill: rgb(0,0,0); fill-rule: nonzero; opacity: 1;"  transform=" translate(0.000005, 0.000005)" d="M -29.23977 -29.23977 L 29.239759999999997 -29.23977 L 29.239759999999997 29.239759999999997 L -29.23977 29.239759999999997 z" stroke-linecap="round" />
</g>
</g>
</g>
</svg>