<?xml version="1.0" encoding="UTF-8" standalone="no" ?>
<!DOCTYPE svg PUBLIC "-//W3C//DTD SVG 1.1//EN" "http://www.w3.org/Graphics/SVG/1.1/DTD/svg11.dtd">
<svg xmlns="http://www.w3.org/2000/svg" xmlns:xlink="http://www.w3.org/1999/xlink" version="1.1" width="800" height="418" viewBox="0 0 800 418" xml:space="preserve">
<desc>Created with Fabric.js 5.3.0</desc>
<defs>
</defs>
<g transform="matrix(1 0 0 1 400 209)" id="AGMMq2LTVxhzJtHjcNFAL"  >
<g style=""   >
		<g transform="matrix(1 0 0 1 -21.5236048854 -0.1262234645)" id="ZPlEx7xvK8ZL4rBx2WhFW"  >
<g style=""   >
		<g transform="matrix(0.923670001 0 0 1.134514353 0 -181.2304759855)" id="C2NmPBxvFpyBDVno2ZFve"  >
<path style="stroke: rgb(0,0,0); stroke-width: 3; stroke-dasharray: none; stroke-linecap: butt; stroke-dashoffset: 0; stroke-linejoin: miter; stroke-miterlimit: 4; fill: rgb(255,255,255); fill-rule: nonzero; opacity: 1;"  transform=" translate(0.000005, 0.000005)" d="M -13.9485 -13.9485 L 13.94849 -13.9485 L 13.94849 13.94849 L -13.9485 13.94849 z" stroke-linecap="round" />
</g>
		<g transform="matrix(0.923670001 0 0 1.134514353 0.000001059 181.2304772866)" id="IkryDxrXSHYvTNHukUZc-"  >
<path style="stroke: rgb(0,0,0); stroke-width: 3; stroke-dasharray: none; stroke-linecap: butt; stroke-dashoffset: 0; stroke-linejoin: miter; stroke-miterlimit: 4; fill: rgb(255,255,255); fill-rule: nonzero; opacity: 1;"  transform=" translate(0.000005, 0.000005)" d="M -13.9485 -13.9485 L 13.94849 -13.9485 L 13.94849 13.94849 L -13.9485 13.94849 z" stroke-linecap="round" />
</g>
		<g transform="matrix(0.6188177867 0 0 11.8072745739 0 0.0981058106)" id="cBYeejmMM17hnbCVAZMHr"  >
<path style="stroke: rgb(0,0,0); stroke-width: 1; stroke-dasharray: none; stroke-linecap: butt; stroke-dashoffset: 0; stroke-linejoin: miter; stroke-miterlimit: 4; fill: rgb(255,255,255); fill-rule: nonzero; opacity: 1;"  transform=" translate(0.000005, 0.000005)" d="M -13.9485 -13.9485 L 13.94849 -13.9485 L 13.94849 13.94849 L -13.9485 13.94849 z" stroke-linecap="round" />
</g>
		<g transform="matrix(0.0085204089 0 0 1.2222769437 0 -0.5491153628)" id="e0D-6lEY91Ur-TQnyT6UE"  >
<path style="stroke: rgb(0,0,0); stroke-width: 0; stroke-dasharray: none; stroke-linecap: butt; stroke-dashoffset: 0; stroke-linejoin: miter; stroke-miterlimit: 4; fill: rgb(0,0,0); fill-rule: nonzero; opacity: 1;"  transform=" translate(0.000005, 0.000005)" d="M -123.39056 -123.39056 L 123.39055000000002 -123.39056 L 123.39055000000002 123.39055000000002 L -123.39056 123.39055000000002 z" stroke-linecap="round" />
</g>
</g>
</g>
		<g transform="matrix(1 0 0 1 21.523605415 0.1262241151)" id="GuFa-xweI3EvTt9sMDWxe"  >
<g style=""   >
		<g transform="matrix(0.923670001 0 0 1.134514353 -5.295e-7 -181.2304766361)" id="wlZYldW4uhWkWl6TjD01K"  >
<path style="stroke: rgb(0,0,0); stroke-width: 3; stroke-dasharray: none; stroke-linecap: butt; stroke-dashoffset: 0; stroke-linejoin: miter; stroke-miterlimit: 4; fill: rgb(255,255,255); fill-rule: nonzero; opacity: 1;"  transform=" translate(0.000005, 0.000005)" d="M -13.9485 -13.9485 L 13.94849 -13.9485 L 13.94849 13.94849 L -13.9485 13.94849 z" stroke-linecap="round" />
</g>
		<g transform="matrix(0.923670001 0 0 1.134514353 5.295e-7 181.230476636)" id="3bQDKy0TpgYbBXK7lApKF"  >
<path style="stroke: rgb(0,0,0); stroke-width: 3; stroke-dasharray: none; stroke-linecap: butt; stroke-dashoffset: 0; stroke-linejoin: miter; stroke-miterlimit: 4; fill: rgb(255,255,255); fill-rule: nonzero; opacity: 1;"  transform=" translate(0.000005, 0.000005)" d="M -13.9485 -13.9485 L 13.94849 -13.9485 L 13.94849 13.94849 L -13.9485 13.94849 z" stroke-linecap="round" />
</g>
		<g transform="matrix(0.6188177867 0 0 11.8072745739 -5.295e-7 0.0981051601)" id="ZlHqauQeVId8CpEilIcKe"  >
<path style="stroke: rgb(0,0,0); stroke-width: 1; stroke-dasharray: none; stroke-linecap: butt; stroke-dashoffset: 0; stroke-linejoin: miter; stroke-miterlimit: 4; fill: rgb(255,255,255); fill-rule: nonzero; opacity: 1;"  transform=" translate(0.000005, 0.000005)" d="M -13.9485 -13.9485 L 13.94849 -13.9485 L 13.94849 13.94849 L -13.9485 13.94849 z" stroke-linecap="round" />
</g>
		<g transform="matrix(0.0085204089 0 0 1.2222769437 -5.295e-7 -0.5491160133)" id="Rpl6qCZIovONFQwkWpbxW"  >
<path style="stroke: rgb(0,0,0); stroke-width: 0; stroke-dasharray: none; stroke-linecap: butt; stroke-dashoffset: 0; stroke-linejoin: miter; stroke-miterlimit: 4; fill: rgb(0,0,0); fill-rule: nonzero; opacity: 1;"  transform=" translate(0.000005, 0.000005)" d="M -123.39056 -123.39056 L 123.39055000000002 -123.39056 L 123.39055000000002 123.39055000000002 L -123.39056 123.39055000000002 z" stroke-linecap="round" />
</g>
</g>
</g>
</g>
</g>
</svg>