<?xml version="1.0" encoding="UTF-8" standalone="no" ?>
<!DOCTYPE svg PUBLIC "-//W3C//DTD SVG 1.1//EN" "http://www.w3.org/Graphics/SVG/1.1/DTD/svg11.dtd">
<svg xmlns="http://www.w3.org/2000/svg" xmlns:xlink="http://www.w3.org/1999/xlink" version="1.1" width="800" height="418" viewBox="0 0 800 418" xml:space="preserve">
<desc>Created with Fabric.js 5.3.0</desc>
<defs>
</defs>
<g transform="matrix(1 0 0 1 400 209)" id="jkYZmjQayRArLin9n_yOc"  >
<g style=""   >
		<g transform="matrix(1 0 0 0.3728166267 -21.2455670218 110.0832055472)" id="EPCHwYNjGgOHgarZYz7Hu"  >
<path style="stroke: rgb(0,0,0); stroke-width: 5; stroke-dasharray: none; stroke-linecap: butt; stroke-dashoffset: 0; stroke-linejoin: miter; stroke-miterlimit: 4; fill: rgb(255,255,255); fill-rule: nonzero; opacity: 1;"  transform=" translate(0, 0)" d="M -31.77966 -31.77966 L 31.77966 -31.77966 L 31.77966 31.77966 L -31.77966 31.77966 z" stroke-linecap="round" />
</g>
		<g transform="matrix(-1.6044574043 1.6044574043 0.0858938661 0.0858938661 -0.2183633762 -101.8986029267)" id="iIU4TCqBCyY71Jww_fset"  >
<path style="stroke: rgb(0,0,0); stroke-width: 2; stroke-dasharray: none; stroke-linecap: butt; stroke-dashoffset: 0; stroke-linejoin: miter; stroke-miterlimit: 4; fill: rgb(0,0,0); fill-rule: nonzero; opacity: 1;"  transform=" translate(0, 0)" d="M -31.77966 -31.77966 L 31.77966 -31.77966 L 31.77966 31.77966 L -31.77966 31.77966 z" stroke-linecap="round" />
</g>
		<g transform="matrix(-1.6058164734 1.6058164734 0.0858938661 0.0858938661 0.6432128352 -86.6192751287)" id="2YMlDl6mJYvtHWYNoZ6fo"  >
<path style="stroke: rgb(0,0,0); stroke-width: 2; stroke-dasharray: none; stroke-linecap: butt; stroke-dashoffset: 0; stroke-linejoin: miter; stroke-miterlimit: 4; fill: rgb(0,0,0); fill-rule: nonzero; opacity: 1;"  transform=" translate(0, 0)" d="M -31.77966 -31.77966 L 31.77966 -31.77966 L 31.77966 31.77966 L -31.77966 31.77966 z" stroke-linecap="round" />
</g>
		<g transform="matrix(-1.3902630941 1.3902630941 0.0858938661 0.0858938661 -7.657187882 -109.8596305981)" id="jte7G9jvVz65GT2ZA3Ru7"  >
<path style="stroke: rgb(0,0,0); stroke-width: 2; stroke-dasharray: none; stroke-linecap: butt; stroke-dashoffset: 0; stroke-linejoin: miter; stroke-miterlimit: 4; fill: rgb(0,0,0); fill-rule: nonzero; opacity: 1;"  transform=" translate(0, 0)" d="M -31.77966 -31.77966 L 31.77966 -31.77966 L 31.77966 31.77966 L -31.77966 31.77966 z" stroke-linecap="round" />
</g>
		<g transform="matrix(1 0 0 0.3728166267 -21.2455650984 134.8623492139)" id="NC6_uiVL3hcyW-ViG_FA4"  >
<path style="stroke: rgb(0,0,0); stroke-width: 5; stroke-dasharray: none; stroke-linecap: butt; stroke-dashoffset: 0; stroke-linejoin: miter; stroke-miterlimit: 4; fill: rgb(255,255,255); fill-rule: nonzero; opacity: 1;"  transform=" translate(0, 0)" d="M -31.77966 -31.77966 L 31.77966 -31.77966 L 31.77966 31.77966 L -31.77966 31.77966 z" stroke-linecap="round" />
</g>
		<g transform="matrix(1 0 0 1.1835819715 0 0)" id="1GnOg6ZQMTYCGApu9wKjx"  >
<path style="stroke: rgb(0,0,0); stroke-width: 7; stroke-dasharray: none; stroke-linecap: butt; stroke-dashoffset: 0; stroke-linejoin: miter; stroke-miterlimit: 4; fill: rgb(255,255,255); fill-opacity: 0; fill-rule: nonzero; opacity: 1;"  transform=" translate(0, -0.000005)" d="M 53.02523 -131.77658 L -39.789139999999996 -131.27389 L -53.02522999999999 -112.40491999999999 L -53.02522999999999 131.77659 L 53.02523000000001 131.77659 z" stroke-linecap="round" />
</g>
</g>
</g>
</svg>