<?xml version="1.0" encoding="UTF-8" standalone="no" ?>
<!DOCTYPE svg PUBLIC "-//W3C//DTD SVG 1.1//EN" "http://www.w3.org/Graphics/SVG/1.1/DTD/svg11.dtd">
<svg xmlns="http://www.w3.org/2000/svg" xmlns:xlink="http://www.w3.org/1999/xlink" version="1.1" width="700" height="1080" viewBox="0 0 700 1080" xml:space="preserve">
<desc>Created with Fabric.js 5.3.0</desc>
<defs>
</defs>
<g transform="matrix(1 0 0 1 350 540)" id="5aY-dvDybJWzXcaqjM0Ak"  >
<g style=""   >
		<g transform="matrix(0.5108223224 0 0 1.0521713526 0 0)" id="kXu3j2VGJTlZdPSHw98hf"  >
<path style="stroke: rgb(0,0,0); stroke-width: 0; stroke-dasharray: none; stroke-linecap: butt; stroke-dashoffset: 0; stroke-linejoin: miter; stroke-miterlimit: 4; fill: rgb(49,168,247); fill-rule: nonzero; opacity: 0.2;"  transform=" translate(0, 0)" d="M -357.76699 -357.76699 L 357.76699 -357.76699 L 357.76699 357.76699 L -357.76699 357.76699 z" stroke-linecap="round" />
</g>
		<g transform="matrix(0.1138316473 0.1566758213 -1.1652961222 0.8466371905 0 -231.3568617144)" id="Zg1SEiE8blgTfXM6tUicW"  >
<path style="stroke: rgb(0,0,0); stroke-width: 0; stroke-dasharray: none; stroke-linecap: butt; stroke-dashoffset: 0; stroke-linejoin: miter; stroke-miterlimit: 4; fill: rgb(255,255,255); fill-rule: nonzero; opacity: 0.49;"  transform=" translate(0, 0)" d="M -137.86408 -100.79201 C -137.86408 -121.26635 -14.416380000000004 -137.86408 137.86408 -137.86408 L 137.86408 -137.86408 L 137.86408 100.79201 L 137.86408 100.79201 C 137.86408 121.26635 14.416380000000004 137.86408 -137.86408 137.86408 L -137.86408 137.86408 z" stroke-linecap="round" />
</g>
		<g transform="matrix(0.1138316473 0.1566758213 -1.1652961222 0.8466371905 0.5430491388 -66.4995315864)" id="Gxss_0I3eqlmLvTXUs1sS"  >
<path style="stroke: rgb(0,0,0); stroke-width: 0; stroke-dasharray: none; stroke-linecap: butt; stroke-dashoffset: 0; stroke-linejoin: miter; stroke-miterlimit: 4; fill: rgb(255,255,255); fill-rule: nonzero; opacity: 0.49;"  transform=" translate(0, 0)" d="M -137.86408 -100.79201 C -137.86408 -121.26635 -14.416380000000004 -137.86408 137.86408 -137.86408 L 137.86408 -137.86408 L 137.86408 100.79201 L 137.86408 100.79201 C 137.86408 121.26635 14.416380000000004 137.86408 -137.86408 137.86408 L -137.86408 137.86408 z" stroke-linecap="round" />
</g>
		<g transform="matrix(0.1138316473 0.1566758213 -1.1652961222 0.8466371905 0.5430491388 104.8727469285)" id="b3wKe46SjnWzUkuCCYEBb"  >
<path style="stroke: rgb(0,0,0); stroke-width: 0; stroke-dasharray: none; stroke-linecap: butt; stroke-dashoffset: 0; stroke-linejoin: miter; stroke-miterlimit: 4; fill: rgb(255,255,255); fill-rule: nonzero; opacity: 0.49;"  transform=" translate(0, 0)" d="M -137.86408 -100.79201 C -137.86408 -121.26635 -14.416380000000004 -137.86408 137.86408 -137.86408 L 137.86408 -137.86408 L 137.86408 100.79201 L 137.86408 100.79201 C 137.86408 121.26635 14.416380000000004 137.86408 -137.86408 137.86408 L -137.86408 137.86408 z" stroke-linecap="round" />
</g>
</g>
</g>
</svg>